<svg width="10" height="10" viewBox="0 0 10 10" fill="none" xmlns="http://www.w3.org/2000/svg">
<path d="M4.23722 5.76278C4.45902 5.97376 4.45902 6.31999 4.23722 6.53097C4.02624 6.74195 3.68001 6.74195 3.46903 6.53097C2.41412 5.47606 2.41412 3.76116 3.46903 2.70625L5.3841 0.791182C6.439 -0.263727 8.15391 -0.263727 9.20882 0.791182C10.2637 1.84609 10.2637 3.561 9.20882 4.6159L8.40276 5.42196C8.40817 4.97836 8.33784 4.53476 8.18637 4.11279L8.44063 3.85312C9.07898 3.22018 9.07898 2.19232 8.44063 1.55937C7.80768 0.921017 6.77982 0.921017 6.14688 1.55937L4.23722 3.46903C3.59886 4.10197 3.59886 5.12983 4.23722 5.76278ZM5.76278 3.46903C5.97376 3.25805 6.31999 3.25805 6.53097 3.46903C7.58588 4.52394 7.58588 6.23884 6.53097 7.29375L4.6159 9.20882C3.561 10.2637 1.84609 10.2637 0.791182 9.20882C-0.263727 8.15391 -0.263727 6.439 0.791182 5.3841L1.59724 4.57804C1.59183 5.02164 1.66216 5.46524 1.81363 5.89262L1.55937 6.14688C0.921017 6.77982 0.921017 7.80768 1.55937 8.44063C2.19232 9.07898 3.22018 9.07898 3.85312 8.44063L5.76278 6.53097C6.40114 5.89803 6.40114 4.87016 5.76278 4.23722C5.54098 4.02624 5.54098 3.68001 5.76278 3.46903Z" fill="#888888"/>
</svg>
